<?xml version="1.0" encoding="utf-8"?>
<svg id="master-artboard" viewBox="0 0 1038.04345703125 207.17393493652344" version="1.1" xmlns="http://www.w3.org/2000/svg" x="0px" y="0px" style="enable-background:new 0 0 1400 980;" ><rect id="ee-background" x="0" y="0" width="1038.04345703125" height="207.17393493652344" style="fill: white; fill-opacity: 0; pointer-events: none;"/><defs><filter id="editing-extrusion" x="-100%" y="-100%" width="300%" height="300%"><feFlood result="color1" flood-color="#444444"/><feConvolveMatrix order="8,8" divisor="1" kernelMatrix="1 0 0 0 0 0 0 0 0 1 0 0 0 0 0 0 0 0 1 0 0 0 0 0 0 0 0 1 0 0 0 0 0 0 0 0 1 0 0 0 0 0 0 0 0 1 0 0 0 0 0 0 0 0 1 0 0 0 0 0 0 0 0 1" in="SourceAlpha" result="extrude"/><feComposite in="color1" in2="extrude" result="comp-extrude" operator="in"/><feOffset dx="4" dy="4" in="comp-extrude" result="offset-extrude"/><feMerge><feMergeNode in="offset-extrude"/><feMergeNode in="SourceGraphic"/></feMerge></filter></defs><g transform="matrix(3.1739554405212402, 0, 0, 3.1739554405212402, -298.9236319801988, -176.52489781762927)"><g filter="url(#editing-extrusion)"><g transform="translate(94.05999636650085, 102.20000076293945)"><path d="M6.14 0L6.14 0Q4.86 0 4.32-0.58L4.32-0.58L4.32-0.58Q3.78-1.15 3.78-2.30L3.78-2.30L3.78-41.15L3.78-41.15Q3.78-42.37 4.32-42.94L4.32-42.94L4.32-42.94Q4.86-43.52 6.21-43.52L6.21-43.52L9.66-43.52L9.66-43.52Q10.69-43.52 11.23-43.26L11.23-43.26L11.23-43.26Q11.78-43.01 12.10-42.24L12.10-42.24L25.02-12.48L37.95-42.24L37.95-42.24Q38.27-43.01 38.82-43.26L38.82-43.26L38.82-43.26Q39.36-43.52 40.38-43.52L40.38-43.52L43.84-43.52L43.84-43.52Q45.18-43.52 45.73-42.94L45.73-42.94L45.73-42.94Q46.27-42.37 46.27-41.15L46.27-41.15L46.27-2.30L46.27-2.30Q46.27-1.15 45.73-0.58L45.73-0.58L45.73-0.58Q45.18 0 43.90 0L43.90 0L41.09 0L41.09 0Q39.81 0 39.23-0.58L39.23-0.58L39.23-0.58Q38.66-1.15 38.66-2.30L38.66-2.30L38.66-29.89L27.71-5.50L27.71-5.50Q27.20-4.48 26.69-4.03L26.69-4.03L26.69-4.03Q26.18-3.58 25.02-3.58L25.02-3.58L25.02-3.58Q23.87-3.58 23.33-4.03L23.33-4.03L23.33-4.03Q22.78-4.48 22.34-5.50L22.34-5.50L11.39-29.89L11.39-2.30L11.39-2.30Q11.39-1.15 10.85-0.58L10.85-0.58L10.85-0.58Q10.30 0 8.96 0L8.96 0L6.14 0ZM66.24 0.96L66.24 0.96Q59.97 0.96 56.26-2.85L56.26-2.85L56.26-2.85Q52.54-6.66 52.54-13.57L52.54-13.57L52.54-13.57Q52.54-18.94 54.91-23.07L54.91-23.07L54.91-23.07Q57.28-27.20 61.66-29.44L61.66-29.44L61.66-29.44Q66.05-31.68 71.87-31.68L71.87-31.68L71.87-31.68Q80-31.68 85.63-27.84L85.63-27.84L85.63-1.73L85.63-1.73Q85.63-0.77 85.22-0.38L85.22-0.38L85.22-0.38Q84.80 0 83.78 0L83.78 0L80.26 0L80.26 0Q79.55 0 79.20-0.29L79.20-0.29L79.20-0.29Q78.85-0.58 78.72-1.22L78.72-1.22L78.21-3.71L78.21-3.71Q76.22-1.28 73.31-0.16L73.31-0.16L73.31-0.16Q70.40 0.96 66.24 0.96L66.24 0.96ZM69.31-4.86L69.31-4.86Q72.70-4.86 75.30-6.85L75.30-6.85L75.30-6.85Q77.89-8.83 77.89-12.10L77.89-12.10L77.89-24.58L77.89-24.58Q76.54-25.28 75.17-25.57L75.17-25.57L75.17-25.57Q73.79-25.86 71.81-25.86L71.81-25.86L71.81-25.86Q66.75-25.86 63.68-22.66L63.68-22.66L63.68-22.66Q60.61-19.46 60.61-13.82L60.61-13.82L60.61-13.82Q60.61-9.22 62.75-7.04L62.75-7.04L62.75-7.04Q64.90-4.86 69.31-4.86L69.31-4.86ZM95.62 0L95.62 0Q94.34 0 93.76-0.58L93.76-0.58L93.76-0.58Q93.18-1.15 93.18-2.30L93.18-2.30L93.18-28.99L93.18-28.99Q93.18-29.95 93.50-30.34L93.50-30.34L93.50-30.34Q93.82-30.72 94.85-30.72L94.85-30.72L98.50-30.72L98.50-30.72Q99.20-30.72 99.52-30.43L99.52-30.43L99.52-30.43Q99.84-30.14 99.90-29.44L99.90-29.44L100.10-27.14L100.10-27.14Q103.87-31.68 110.02-31.68L110.02-31.68L110.02-31.68Q112.83-31.68 114.30-30.72L114.30-30.72L114.30-30.72Q114.69-30.46 114.78-30.18L114.78-30.18L114.78-30.18Q114.88-29.89 114.75-29.50L114.75-29.50L113.60-25.66L113.60-25.66Q113.41-25.02 112.90-25.02L112.90-25.02L112.38-25.15L112.38-25.15Q110.85-25.86 108.86-25.86L108.86-25.86L108.86-25.86Q105.60-25.86 103.49-24.03L103.49-24.03L103.49-24.03Q101.38-22.21 101.38-19.07L101.38-19.07L101.38-2.30L101.38-2.30Q101.38-1.15 100.83-0.58L100.83-0.58L100.83-0.58Q100.29 0 98.94 0L98.94 0L95.62 0ZM122.18 0L122.18 0Q120.90 0 120.35-0.58L120.35-0.58L120.35-0.58Q119.81-1.15 119.81-2.30L119.81-2.30L119.81-41.15L119.81-41.15Q119.81-42.37 120.35-42.94L120.35-42.94L120.35-42.94Q120.90-43.52 122.18-43.52L122.18-43.52L125.57-43.52L125.57-43.52Q126.85-43.52 127.42-42.94L127.42-42.94L127.42-42.94Q128-42.37 128-41.15L128-41.15L128-2.30L128-2.30Q128-1.15 127.46-0.58L127.46-0.58L127.46-0.58Q126.91 0 125.57 0L125.57 0L122.18 0ZM142.91 0L142.91 0Q142.21 0 141.89-0.13L141.89-0.13L141.89-0.13Q141.57-0.26 141.18-0.70L141.18-0.70L129.92-13.44L129.92-13.44Q129.34-14.08 129.09-14.62L129.09-14.62L129.09-14.62Q128.83-15.17 128.83-16L128.83-16L128.83-16Q128.83-16.83 129.09-17.38L129.09-17.38L129.09-17.38Q129.34-17.92 129.92-18.56L129.92-18.56L140.80-29.95L140.80-29.95Q141.18-30.40 141.54-30.56L141.54-30.56L141.54-30.56Q141.89-30.72 142.72-30.72L142.72-30.72L148.67-30.72L148.67-30.72Q149.12-30.72 149.34-30.46L149.34-30.46L149.34-30.46Q149.57-30.21 149.57-29.82L149.57-29.82L149.57-29.82Q149.57-29.31 149.18-28.93L149.18-28.93L136.45-16L149.63-1.79L149.63-1.79Q150.02-1.41 150.02-0.96L150.02-0.96L150.02-0.96Q150.02-0.58 149.76-0.29L149.76-0.29L149.76-0.29Q149.50 0 149.06 0L149.06 0L142.91 0ZM183.04 0L183.04 0Q181.76 0 181.22-0.58L181.22-0.58L181.22-0.58Q180.67-1.15 180.67-2.30L180.67-2.30L180.67-41.15L180.67-41.15Q180.67-42.37 181.22-42.94L181.22-42.94L181.22-42.94Q181.76-43.52 183.04-43.52L183.04-43.52L186.43-43.52L186.43-43.52Q187.71-43.52 188.29-42.94L188.29-42.94L188.29-42.94Q188.86-42.37 188.86-41.15L188.86-41.15L188.86-2.30L188.86-2.30Q188.86-1.15 188.32-0.58L188.32-0.58L188.32-0.58Q187.78 0 186.43 0L186.43 0L183.04 0ZM208.06 0L208.06 0Q207.36 0 207.01-0.13L207.01-0.13L207.01-0.13Q206.66-0.26 206.27-0.70L206.27-0.70L190.85-19.26L190.85-19.26Q190.27-19.97 190.02-20.48L190.02-20.48L190.02-20.48Q189.76-20.99 189.76-21.82L189.76-21.82L189.76-21.82Q189.76-22.66 189.98-23.10L189.98-23.10L189.98-23.10Q190.21-23.55 190.85-24.38L190.85-24.38L205.89-42.75L205.89-42.75Q206.27-43.26 206.66-43.39L206.66-43.39L206.66-43.39Q207.04-43.52 207.87-43.52L207.87-43.52L213.76-43.52L213.76-43.52Q214.21-43.52 214.46-43.26L214.46-43.26L214.46-43.26Q214.72-43.01 214.72-42.62L214.72-42.62L214.72-42.62Q214.72-42.11 214.34-41.73L214.34-41.73L197.76-21.82L214.72-1.79L214.72-1.79Q215.10-1.41 215.10-0.90L215.10-0.90L215.10-0.90Q215.10-0.51 214.85-0.26L214.85-0.26L214.85-0.26Q214.59 0 214.14 0L214.14 0L208.06 0ZM224.45-36.03L224.45-36.03Q222.91-36.03 222.08-36.93L222.08-36.93L222.08-36.93Q221.25-37.82 221.25-39.10L221.25-39.10L221.25-40.45L221.25-40.45Q221.25-41.73 222.08-42.62L222.08-42.62L222.08-42.62Q222.91-43.52 224.45-43.52L224.45-43.52L227.20-43.52L227.20-43.52Q228.74-43.52 229.60-42.62L229.60-42.62L229.60-42.62Q230.46-41.73 230.46-40.45L230.46-40.45L230.46-39.10L230.46-39.10Q230.46-37.82 229.60-36.93L229.60-36.93L229.60-36.93Q228.74-36.03 227.20-36.03L227.20-36.03L224.45-36.03ZM224.19 0L224.19 0Q222.91 0 222.34-0.58L222.34-0.58L222.34-0.58Q221.76-1.15 221.76-2.30L221.76-2.30L221.76-28.35L221.76-28.35Q221.76-29.57 222.34-30.14L222.34-30.14L222.34-30.14Q222.91-30.72 224.19-30.72L224.19-30.72L227.52-30.72L227.52-30.72Q228.80-30.72 229.38-30.14L229.38-30.14L229.38-30.14Q229.95-29.57 229.95-28.35L229.95-28.35L229.95-2.30L229.95-2.30Q229.95-1.15 229.41-0.58L229.41-0.58L229.41-0.58Q228.86 0 227.52 0L227.52 0L224.19 0ZM240.45 0L240.45 0Q239.17 0 238.59-0.58L238.59-0.58L238.59-0.58Q238.02-1.15 238.02-2.30L238.02-2.30L238.02-28.99L238.02-28.99Q238.02-29.95 238.34-30.34L238.34-30.34L238.34-30.34Q238.66-30.72 239.68-30.72L239.68-30.72L243.33-30.72L243.33-30.72Q244.74-30.72 244.80-29.44L244.80-29.44L244.93-26.88L244.93-26.88Q249.28-31.68 257.41-31.68L257.41-31.68L257.41-31.68Q262.59-31.68 265.76-28.90L265.76-28.90L265.76-28.90Q268.93-26.11 268.93-20.54L268.93-20.54L268.93-2.30L268.93-2.30Q268.93-1.15 268.38-0.58L268.38-0.58L268.38-0.58Q267.84 0 266.56 0L266.56 0L263.17 0L263.17 0Q261.89 0 261.31-0.58L261.31-0.58L261.31-0.58Q260.74-1.15 260.74-2.30L260.74-2.30L260.74-20.03L260.74-20.03Q260.74-23.17 259.30-24.48L259.30-24.48L259.30-24.48Q257.86-25.79 254.66-25.79L254.66-25.79L254.66-25.79Q251.26-25.79 248.74-23.97L248.74-23.97L248.74-23.97Q246.21-22.14 246.21-19.26L246.21-19.26L246.21-2.30L246.21-2.30Q246.21-1.15 245.66-0.58L245.66-0.58L245.66-0.58Q245.12 0 243.78 0L243.78 0L240.45 0ZM292.48 10.88L292.48 10.88Q288.77 10.88 285.25 10.18L285.25 10.18L285.25 10.18Q281.73 9.47 279.87 8.32L279.87 8.32L279.87 8.32Q278.85 7.74 279.36 6.91L279.36 6.91L281.22 3.78L281.22 3.78Q281.60 3.14 281.98 3.14L281.98 3.14L281.98 3.14Q282.24 3.14 282.62 3.33L282.62 3.33L282.62 3.33Q286.14 5.12 291.78 5.12L291.78 5.12L291.78 5.12Q296.06 5.12 298.05 3.07L298.05 3.07L298.05 3.07Q300.03 1.02 300.03-3.84L300.03-3.84L300.03-3.84Q298.24-1.92 295.84-0.99L295.84-0.99L295.84-0.99Q293.44-0.06 290.05-0.06L290.05-0.06L290.05-0.06Q282.88-0.06 278.88-3.97L278.88-3.97L278.88-3.97Q274.88-7.87 274.88-14.98L274.88-14.98L274.88-14.98Q274.88-23.04 279.65-27.36L279.65-27.36L279.65-27.36Q284.42-31.68 293.44-31.68L293.44-31.68L293.44-31.68Q297.60-31.68 301.60-30.53L301.60-30.53L301.60-30.53Q305.60-29.38 308.10-27.65L308.10-27.65L308.10-5.70L308.10-5.70Q308.10 2.05 304.32 6.46L304.32 6.46L304.32 6.46Q300.54 10.88 292.48 10.88L292.48 10.88ZM291.97-6.08L291.97-6.08Q295.55-6.08 297.79-7.97L297.79-7.97L297.79-7.97Q300.03-9.86 300.03-13.18L300.03-13.18L300.03-24.58L300.03-24.58Q298.82-25.15 296.96-25.47L296.96-25.47L296.96-25.47Q295.10-25.79 293.06-25.79L293.06-25.79L293.06-25.79Q282.94-25.79 282.94-15.49L282.94-15.49L282.94-15.49Q282.94-10.75 285.18-8.42L285.18-8.42L285.18-8.42Q287.42-6.08 291.97-6.08L291.97-6.08Z"/></g></g></g></svg>