<svg xmlns="http://www.w3.org/2000/svg" width="793.333" height="793.333" preserveAspectRatio="xMidYMid meet" version="1.0" viewBox="0 0 595 595"><metadata>Created by potrace 1.11, written by Peter Selinger 2001-2013</metadata><g fill="#000" stroke="none"><path d="M1585 5128 c-44 -10 -150 -41 -235 -68 -86 -28 -198 -59 -250 -70 -155 -34 -343 -91 -365 -111 -5 -5 -16 -9 -25 -9 -23 0 -225 -105 -285 -147 -69 -50 -167 -151 -186 -193 -9 -19 -22 -47 -29 -61 -20 -45 -14 -173 11 -219 5 -8 51 -103 103 -210 183 -374 331 -619 446 -738 69 -70 101 -86 144 -72 60 19 153 142 243 318 15 28 30 52 34 52 7 0 25 -48 54 -137 l16 -52 -55 -118 c-54 -118 -106 -247 -106 -265 0 -5 5 -6 11 -3 18 12 113 14 126 3 9 -7 7 -19 -11 -47 -32 -51 -127 -249 -164 -341 -44 -111 -67 -195 -97 -350 -42 -219 -58 -494 -41 -714 9 -118 31 -237 39 -216 4 8 16 41 27 72 31 84 117 221 180 284 114 116 210 162 379 181 l55 6 -32 -39 c-29 -35 -44 -73 -24 -60 4 2 41 -2 81 -10 65 -12 150 -46 216 -87 11 -6 62 -38 112 -69 51 -32 96 -58 99 -58 4 0 28 -13 53 -28 25 -16 91 -48 146 -72 87 -38 109 -43 168 -43 37 1 67 -2 67 -6 0 -17 113 -131 159 -161 97 -62 186 -85 321 -84 136 2 256 32 345 89 55 35 145 130 145 153 0 9 15 11 55 8 39 -2 72 3 117 18 62 22 209 93 278 135 19 11 57 33 84 48 61 35 70 40 134 81 63 41 131 68 197 77 70 10 87 14 91 18 2 2 -13 23 -33 46 l-36 43 65 -6 c179 -17 318 -99 435 -256 45 -60 123 -208 123 -233 0 -9 5 -19 10 -22 6 -4 8 -10 5 -15 -3 -5 -1 -11 5 -15 5 -3 10 3 10 14 0 27 0 25 10 63 37 126 28 618 -15 818 -2 14 -9 48 -15 75 -36 188 -68 279 -182 514 -48 101 -86 186 -84 188 10 10 60 12 97 4 41 -9 41 -9 34 17 -11 47 -55 153 -117 282 -70 148 -70 151 8 360 3 8 31 -33 71 -105 94 -173 104 -190 158 -260 38 -50 62 -73 99 -92 75 -39 172 61 374 382 6 11 16 29 22 40 5 11 25 47 45 80 62 107 243 478 265 544 28 85 24 144 -16 228 -56 118 -160 208 -359 308 -138 70 -319 133 -486 169 -64 14 -185 47 -270 75 -242 77 -260 81 -395 87 -118 4 -171 -8 -278 -64 -89 -46 -176 -127 -212 -196 -28 -54 -29 -54 -55 -41 -14 8 -37 16 -50 19 -13 2 -42 11 -65 19 -41 15 -139 38 -184 42 -14 2 -38 5 -55 8 -16 3 -52 8 -79 12 -27 3 -52 8 -55 10 -10 5 -181 18 -246 18 -33 0 -89 -3 -125 -7 -62 -7 -85 -10 -147 -21 -16 -2 -48 -7 -73 -10 -25 -3 -56 -7 -70 -10 -14 -2 -40 -7 -59 -10 -19 -3 -37 -8 -41 -10 -3 -2 -18 -6 -31 -8 -14 -3 -56 -14 -93 -26 -37 -12 -71 -21 -75 -21 -4 0 -12 15 -19 33 -33 92 -200 214 -344 252 -68 19 -210 15 -303 -7z" transform="translate(0.000000,595.000000) scale(0.100000,-0.100000)"/></g></svg>